<svg width="522" height="396" viewBox="0 0 522 396" fill="none" xmlns="http://www.w3.org/2000/svg">
<mask id="mask0_1_982" style="mask-type:alpha" maskUnits="userSpaceOnUse" x="0" y="0" width="522" height="396">
<path d="M472.7 11.2C359.447 -38.8116 314.05 108.31 237.592 134.53C161.5 171.844 86.1102 132.967 41.1912 169.489C-30.0101 227.381 4.53112 324.015 52.1821 363.709C120.516 420.632 238.56 395.983 359.447 328.749C510.903 244.515 572.004 55.0517 472.7 11.2Z" fill="#98C3E8"/>
</mask>
<g mask="url(#mask0_1_982)">
<rect x="-84.8521" y="-64.1636" width="648.685" height="549.044" fill="url(#paint0_linear_1_982)"/>
<path d="M-3.00375 110.717C56.476 140.711 123.073 224.667 123.073 264.755C123.073 314.067 18.5174 389.645 -29.4392 432.518L379.802 458.953C365.229 393.712 328.433 248.672 350.825 216.459C379.802 174.772 497.067 184.94 562.817 192.565L580.61 7.00882C548.582 20.396 476.902 58.863 437.757 48.6955C401.523 39.2841 332.015 -1.29462 302.529 -27.0522" stroke="white" stroke-opacity="0.2" stroke-width="15"/>
<path d="M150.017 64.9636C166.285 149.693 210.514 305.018 257.284 248.487C315.747 177.823 362.009 86.3153 405.729 146.812C440.705 195.209 492.153 290.682 513.505 332.368" stroke="white" stroke-opacity="0.2" stroke-width="15"/>
<path fill-rule="evenodd" clip-rule="evenodd" d="M333.352 114.369C333.352 117.928 330.466 120.814 326.907 120.814C323.347 120.814 320.461 117.928 320.461 114.369C320.461 110.809 323.347 107.924 326.907 107.924C330.466 107.924 333.352 110.809 333.352 114.369ZM66.6787 253.748C70.2383 253.748 73.1239 250.862 73.1239 247.303C73.1239 243.743 70.2383 240.857 66.6787 240.857C63.119 240.857 60.2334 243.743 60.2334 247.303C60.2334 250.862 63.119 253.748 66.6787 253.748ZM206.863 335.925C210.423 335.925 213.309 333.039 213.309 329.48C213.309 325.92 210.423 323.034 206.863 323.034C203.304 323.034 200.418 325.92 200.418 329.48C200.418 333.039 203.304 335.925 206.863 335.925ZM427.614 240.857C431.173 240.857 434.059 237.972 434.059 234.412C434.059 230.852 431.173 227.967 427.614 227.967C424.054 227.967 421.169 230.852 421.169 234.412C421.169 237.972 424.054 240.857 427.614 240.857Z" fill="white" fill-opacity="0.6"/>
<circle cx="42.5089" cy="317.395" r="13.7245" stroke="white" stroke-opacity="0.4" stroke-width="8"/>
<circle cx="509.791" cy="94.2274" r="13.7245" stroke="white" stroke-opacity="0.4" stroke-width="8"/>
<circle cx="308.376" cy="281.946" r="13.7245" stroke="white" stroke-opacity="0.4" stroke-width="8"/>
</g>
<defs>
<linearGradient id="paint0_linear_1_982" x1="286.314" y1="-100.999" x2="255.841" y2="439.458" gradientUnits="userSpaceOnUse">
<stop stop-color="#D1ECFF"/>
<stop offset="1" stop-color="#1070B1"/>
</linearGradient>
</defs>
</svg>
